<svg xmlns="http://www.w3.org/2000/svg" width="94" height="23" viewBox="23.173 5.187 94 23" enable-background="new 23.173 5.187 94 23"><g><linearGradient id="a" gradientUnits="userSpaceOnUse" x1="-6.245" y1="21.525" x2="-3.923" y2="18.329" gradientTransform="matrix(1 0 0 -1 59.001 14.234)"><stop offset="0" stop-color="#E0CF00"/><stop offset="1" stop-color="#FBE800"/></linearGradient><path fill="url(#a)" d="M117.168 23.624c0 2.516-2.061 4.563-4.58 4.563l-84.837-.02c-2.519-.003-4.578-2.055-4.578-4.562l.002-9.839s0-1.277 2.709-2.136c3.692-1.164 7.364-6.443 9.063-6.443l77.649.019c2.521-.001 4.576 2.052 4.576 4.566l-.004 13.852z"/><path d="M31.418 11.263c1.475 0 2.637.913 2.638 2.381l-.001.805c.001.091-.232.061-.947.061-.883.001-1.303 0-1.303-.076v-.696c0-.357-.186-.541-.389-.543-.2 0-.387.186-.386.525-.001 1.037.077 1.129 1.255 2.118.883.741 1.926 1.549 1.924 3.715 0 1.592-1.086 2.535-2.718 2.532-1.535 0-2.713-.959-2.713-2.535v-.865c0-.109.171-.107 1.04-.109.869-.001 1.288-.016 1.29.079l-.002.434c0 .772.03 1.017.386 1.02.328 0 .39-.373.39-.757 0-1.456-1.055-1.936-1.909-2.786-.946-.941-1.193-1.422-1.194-2.923 0-1.436 1.197-2.381 2.639-2.38zm4.687 2.195c-.079-.03-.357-.029-.575-.029h-.574c-.233-.001-.279-.141-.279-1.098 0-.975.031-1.069.217-1.068.977.001 4.035.003 5.012.002.186 0 .202.107.202.987-.002 1.086-.016 1.179-.187 1.176l-.668-.001c-.232 0-.51 0-.589.03-.141.108-.109.374-.109.571v7.905c-.001.14-.094.15-1.243.153-1.008 0-1.101 0-1.1-.155-.001-3.385-.001-4.498.001-7.902 0-.197.032-.462-.108-.571zm4.729 8.635c-.232-.003-1.133-.003-1.118-.144.67-4.065 1.058-6.479 1.648-10.466.031-.219.839-.232 1.18-.232.388 0 1.086.016 1.13.279.668 3.955 1.086 6.354 1.815 10.41.032.167-.808.151-1.227.153-.45-.005-.962.029-.993-.187l-.294-2.104c-.014-.156-.154-.127-.404-.127-.293.002-.449-.027-.464.127-.092.863-.14 1.236-.216 2.13-.017.172-.56.159-1.057.161zm1.692-3.884c.217.001.343.046.341-.106-.045-.932-.092-1.393-.169-2.613 0-.078-.045-.666-.156-.666-.094 0-.14.678-.14.742-.064 1.113-.125 1.575-.171 2.521.002.122.033.122.295.122zm4.858 3.885c-1.117-.002-1.117-.019-1.118-.235l.003-10.298c.001-.28.016-.279 1.117-.278 1.209-.001 1.21.016 1.209.293l-.001 10.254c0 .247-.016.263-1.21.264zm4.826-5.044c-.141.003-.108.466-.108.773l-.001 4.006c0 .25-.016.266-1.212.264-1.115.002-1.054-.017-1.054-.231 0-3.882 0-6.587.002-10.3.001-.278-.046-.28 1.054-.279.884 0 .947.016 1.024.293.17.607.775 2.648 1.241 4.025.043.151.108.414.217.414.14 0 .124-.399.123-.63l.002-3.822c-.001-.279.014-.28 1.117-.281 1.209.002 1.148.018 1.149.296l-.005 10.253c0 .249.047.265-1.148.265-.574 0-.714.031-.807-.233-.575-1.624-.682-2.15-1.271-4.131-.075-.264-.198-.678-.323-.682zm7.124-5.78c1.473 0 2.639.911 2.639 2.384v.803c0 .091-.234.062-.947.061-.886 0-1.304 0-1.304-.078v-.695c0-.355-.186-.542-.39-.542-.201-.001-.387.186-.387.524 0 1.036.078 1.13 1.257 2.119.884.743 1.92 1.55 1.92 3.713 0 1.592-1.085 2.537-2.715 2.537-1.537-.001-2.715-.962-2.716-2.54v-.864c.001-.11.172-.108 1.041-.11.868 0 1.288-.014 1.288.078v.435c0 .774.031 1.02.387 1.02.327 0 .39-.37.391-.756-.001-1.455-1.057-1.937-1.91-2.786-.946-.942-1.196-1.423-1.194-2.922.002-1.439 1.198-2.381 2.64-2.381zm6.438 10.827c-.651-.003-1.8-.003-2.251 0-.466-.002-.464.012-.464-.467l.001-9.898c.002-.462.018-.462.468-.462l2.188.001c1.627 0 2.714.943 2.714 2.537v1.236c0 1.393-1.151 1.406-1.148 1.485-.001.062 1.21.045 1.21 1.375v1.654c-.001 1.595-1.088 2.537-2.718 2.539zm0-4.422c-.309-.001-.388-.015-.387.184v1.809c0 .202-.015.188.387.188.327 0 .389-.155.389-.636v-.619c0-.435.063-.927-.389-.926zm-.061-4.162c-.262-.001-.324-.016-.326.185v1.7c.002.201.095.189.324.188.344.002.392-.339.392-.513l-.002-.633c0-.432.063-.928-.388-.927zm3.787 7.997c.002-3.71.002-6.065.003-9.775-.001-.199.016-.216.108-.341.093-.123.199-.124.356-.122.854.001 3.01 0 3.863-.001.188.002.186.049.186.991.002 1.112-.001 1.176-.2 1.175h-1.554c-.127 0-.31.016-.361.078-.073.108-.071.09-.073.293v1.128c-.003.14-.033.311.092.404.109.076.219.061.339.061l.763.002c.188 0 .172.062.169 1.097.002.986.032 1.051-.169 1.051h-.698c-.157 0-.326.017-.39.048-.139.091-.108.246-.108.447v1.284c0 .202 0 .495.075.544.08.044.298.062.469.059l1.473.003c.188 0 .204.029.202 1.033-.003 1.112-.017 1.13-.187 1.13-.668-.003-2.977-.003-3.646-.001-.248-.002-.513.028-.621-.062-.122-.112-.091-.34-.091-.526zm6.175.588c-.234-.001-1.136.002-1.12-.143.673-4.062 1.057-6.478 1.649-10.464.029-.217.837-.233 1.177-.232.39 0 1.088.017 1.132.28.669 3.958 1.089 6.355 1.817 10.406.03.172-.81.153-1.228.153-.448 0-.964.029-.994-.187l-.295-2.102c-.014-.155-.154-.125-.403-.125-.294 0-.451-.029-.462.125-.094.865-.142 1.234-.219 2.135-.015.171-.559.154-1.054.154zm1.691-3.879c.218 0 .343.045.343-.109-.047-.928-.093-1.391-.17-2.615 0-.076-.046-.661-.155-.661-.093 0-.139.677-.141.738-.062 1.115-.125 1.58-.17 2.524 0 .122.031.123.293.123zm8.939 1.347c0 1.592-1.086 2.532-2.716 2.532-1.569 0-2.715-1.004-2.715-2.535.001-2.303.001-5.674.004-7.979 0-.31.03-.31 1.256-.31.913 0 1.069 0 1.073.309-.005 1.763-.004 5.582-.005 7.345-.002.435-.078.927.39.929.447 0 .385-.494.39-.927-.019-1.749-.002-5.599 0-7.347 0-.31.046-.308 1.069-.307 1.227 0 1.256.077 1.259.307-.003 2.245-.005 5.723-.005 7.983zm3.802-1.175c-.249-.001-.388.078-.388.648v2.8c.002.293-.202.264-1.194.261-.992.001-1.134.017-1.133-.462-.001-2.305.002-7.592.002-9.896 0-.466.015-.465.466-.465l2.247.001c1.632-.001 2.719.943 2.716 2.536v2.041c0 1.595-1.087 2.535-2.716 2.536zm0-4.87c-.401-.002-.386-.019-.386.185v2.412c0 .201-.018.185.386.188.452 0 .392-.497.392-.929l-.002-.927c0-.438.059-.931-.39-.929zm3.835 8.583c-.235 0-1.135 0-1.119-.141.669-4.062 1.056-6.482 1.646-10.466.031-.219.84-.233 1.179-.237.39.004 1.086.018 1.131.283.67 3.958 1.087 6.356 1.814 10.406.032.171-.807.155-1.222.154-.452.001-.965.029-.999-.186-.123-.865-.169-1.252-.295-2.102-.016-.155-.153-.127-.403-.127-.294 0-.447-.028-.464.127-.095.863-.139 1.234-.215 2.132-.018.173-.561.156-1.053.157zm1.689-3.88c.22-.002.341.044.346-.108-.049-.93-.098-1.394-.174-2.615 0-.077-.047-.666-.155-.666-.093.001-.14.681-.14.741l-.172 2.521c0 .125.031.125.295.127zm4.066-.632c-.03-.203-.154-.575-.248-.913-.513-1.811-.991-3.359-1.474-5.167-.045-.204.774-.218 1.038-.218.484.002 1.229.017 1.26.249.185 1.346.372 2.441.539 3.695.005.047.033.142.096.142.062-.002.078-.108.078-.155.2-1.377.294-2.291.482-3.681.03-.203.759-.25 1.166-.247.42-.002 1.102.015 1.051.218-.466 1.825-.805 3.184-1.366 4.99l-.215.897c-.047.14-.079.62-.08.897v3.682c0 .14-.962.124-1.165.124-.248 0-1.162.016-1.162-.172l.015-3.586c-.002-.278.017-.589-.015-.755zm6.938-6.312c1.473.003 2.636.915 2.639 2.383l-.003.806c0 .091-.233.06-.948.061-.882-.002-1.302-.001-1.302-.079v-.694c0-.354-.181-.541-.388-.541-.202-.002-.39.186-.39.524 0 1.038.081 1.131 1.257 2.12.885.741 1.927 1.545 1.926 3.711 0 1.593-1.089 2.536-2.714 2.536-1.54-.002-2.718-.959-2.717-2.539l-.001-.862c.001-.108.17-.111 1.038-.111.868.001 1.292-.014 1.29.079l-.003.434c.003.772.032 1.018.391 1.021.328-.003.386-.373.389-.759.003-1.455-1.057-1.934-1.908-2.786-.947-.938-1.195-1.419-1.195-2.92.002-1.439 1.195-2.383 2.639-2.384z"/><path fill="#231F20" d="M111.258 11.929h-.192l-.172.01c-.043.033-.033.109-.032.165l-.001 2.307c0 .042-.024.046-.361.045-.295.001-.322 0-.322-.046v-2.305c.002-.055.009-.133-.032-.166l-.169-.011-.166.002c-.069-.001-.082-.042-.082-.325-.001-.284.008-.312.064-.311h1.461c.055 0 .06.032.061.291-.002.317-.006.344-.057.344z"/><path fill="#231F20" d="M113.277 14.458c-.325.001-.322-.004-.325-.068v-1.578c.002-.079-.071-.101-.081-.041-.045.261-.104.562-.138.63l-.079.062h-.11l-.082-.058c-.03-.068-.084-.372-.128-.628-.014-.053-.106-.04-.109.032l.002 1.572c0 .072-.005.075-.354.075-.324 0-.289-.003-.289-.067v-3.006c.003-.082.022-.081.291-.081.286 0 .331.018.35.084l.166.557c.082.297.163.555.204.554.036.002.109-.245.193-.554l.161-.561c.021-.066.071-.081.328-.081.29.001.328.007.329.087l-.003 2.988c.002.077.024.081-.326.082z"/><linearGradient id="b" gradientUnits="userSpaceOnUse" x1="-28.142" y1="2.196" x2="-30.336" y2="5.449" gradientTransform="matrix(1 0 0 -1 59.001 14.234)"><stop offset="0" stop-color="#FBE600"/><stop offset=".615" stop-color="#F9E400"/><stop offset=".908" stop-color="#F1DE00"/><stop offset="1" stop-color="#EDDB00"/></linearGradient><path fill="url(#b)" d="M27.582 8.515c3.052-2.169 6.661-3.326 7.502-3.328h.004v.002c-.589-.001-.951.379-1.173.856v.002c-.359.761-.355 1.756-.355 1.756 0 2.505-2.06 4.561-4.58 4.561 0 0-2.456-.089-4.176.324-.865.205-1.543.541-1.628 1.08.048-.82 1.354-3.086 4.406-5.253z"/></g></svg>